<?xml version="1.0" encoding="utf-8"?>
<!-- Generator: Adobe Illustrator 21.1.0, SVG Export Plug-In . SVG Version: 6.00 Build 0)  -->
<svg version="1.1" id="Layer_1" xmlns="http://www.w3.org/2000/svg" xmlns:xlink="http://www.w3.org/1999/xlink" x="0px" y="0px"
	 viewBox="0 0 720 109" style="enable-background:new 0 0 720 109;" xml:space="preserve">
<style type="text/css">
	.st0{fill:#545759;}
	.st1{fill:#EDB81E;}
</style>
<g>
	<g>
		<g>
			<path class="st0" d="M161.2,69.8v33.3h-21.3V7.3h36.3c7.7,0,12.9,1.4,15.5,3.9c2.6,2.7,3.9,6.8,3.9,12.3v23.2
				c0,5.6-2.4,9.7-7.3,12.3c-1.2,0.5-1.9,1-1.9,1.5c0,0.4,0.7,0.9,1.9,1.4c5.3,2.7,7.9,6.8,7.9,12.3v28.8h-21.3V72.3
				c0-1.7-0.8-2.5-2.5-2.5H161.2z M161.2,25.8v25.6h11.3c1.6,0,2.5-0.8,2.5-2.5V28.3c0-1.7-0.8-2.5-2.5-2.5H161.2z"/>
			<path class="st0" d="M258.4,7.3v18.4h-26.6V46h22.8v18.4h-22.8v20.3h26.6v18.4h-48V84.7h0.1V7.3H258.4z"/>
			<path class="st0" d="M282.3,7.3h34l17.3,95.7h-21.3L309.1,85h-19.7l-3.1,18.1h-21.3L282.3,7.3z M299.3,23.6l-6.6,43h13.1
				L299.3,23.6z"/>
			<path class="st0" d="M342.2,7.3h21.3v77.3h24.2v18.4h-45.5V7.3z"/>
			<path class="st0" d="M427.1,25.8v77.3h-21.3V25.8h-17.5V7.3h56.4v18.4H427.1z"/>
			<path class="st0" d="M473.1,69.8v33.3h-21.3V7.3H488c7.7,0,12.9,1.4,15.5,3.9c2.6,2.7,3.9,6.8,3.9,12.3v23.2
				c0,5.6-2.4,9.7-7.3,12.3c-1.2,0.5-1.9,1-1.9,1.5c0,0.4,0.7,0.9,1.9,1.4c5.3,2.7,7.9,6.8,7.9,12.3v28.8h-21.3V72.3
				c0-1.7-0.8-2.5-2.5-2.5H473.1z M473.1,25.8v25.6h11.3c1.6,0,2.5-0.8,2.5-2.5V28.3c0-1.7-0.8-2.5-2.5-2.5H473.1z"/>
			<path class="st0" d="M556.9,7.3h21.3v79.5c0,5.6-1.3,9.7-3.9,12.3c-2.6,2.6-7.8,3.9-15.5,3.9h-17.5c-7.7,0-12.9-1.4-15.5-3.9
				c-2.6-2.7-3.9-6.8-3.9-12.3V7.3h21.3v74.8c0,1.7,0.8,2.5,2.4,2.5h8.9c1.6,0,2.5-0.8,2.5-2.5V7.3z"/>
			<path class="st0" d="M647.7,43.8h-20V28.3c0-1.7-0.8-2.5-2.5-2.5h-8.9c-1.6,0-2.4,0.8-2.4,2.5v53.8c0,1.7,0.8,2.5,2.4,2.5h8.9
				c1.6,0,2.5-0.8,2.5-2.5V66.7h20v20.1c0,5.6-1.3,9.7-3.9,12.3c-2.6,2.6-7.8,3.9-15.5,3.9h-16.1c-7.7,0-12.9-1.4-15.5-3.9
				c-2.6-2.7-3.9-6.8-3.9-12.3V23.6c0-5.6,1.3-9.7,3.9-12.3c2.6-2.6,7.8-3.9,15.5-3.9h16.1c7.7,0,12.9,1.4,15.5,3.9
				c2.6,2.7,3.9,6.8,3.9,12.3V43.8z"/>
			<path class="st0" d="M682.2,60.5v42.6h-21.3V7.3h21.3v40.4L697,7.3h21.6l-17.3,46.9l18.7,48.8h-21.6L682.2,60.5z"/>
		</g>
	</g>
	<path class="st1" d="M84.7,69.5h30.5l0-34.7v-0.1C115.2,15.5,99.7,0,80.6,0c-0.2,0-45.5,0-67.8,0L0,0l18.1,22.9h62.3
		c6.4,0,11.6,5.2,11.6,11.5l0,11.7H36.6l49,62.8l30,0L84.7,69.5z"/>
</g>
</svg>
